<svg width="19" height="18" viewBox="0 0 19 18" fill="none" xmlns="http://www.w3.org/2000/svg">
<path d="M15.8536 9.35355C16.0488 9.15829 16.0488 8.84171 15.8536 8.64645L12.6716 5.46447C12.4763 5.2692 12.1597 5.2692 11.9645 5.46447C11.7692 5.65973 11.7692 5.97631 11.9645 6.17157L14.7929 9L11.9645 11.8284C11.7692 12.0237 11.7692 12.3403 11.9645 12.5355C12.1597 12.7308 12.4763 12.7308 12.6716 12.5355L15.8536 9.35355ZM4.5 9.5L15.5 9.5L15.5 8.5L4.5 8.5L4.5 9.5Z" fill="black"/>
<path d="M18 12.0769V12.0769C18 14.7959 15.7959 17 13.0769 17L6 17C3.23858 17 1 14.7614 1 12L1 6C1 3.23858 3.23858 0.999999 6 1L13.0769 1C15.7959 1 18 3.20414 18 5.92308V5.92308" stroke="black"/>
</svg>
