<svg width="19" height="18" viewBox="0 0 19 18" fill="none" xmlns="http://www.w3.org/2000/svg">
<path d="M15.1476 9.00037C14.7838 9.00037 14.489 9.28819 14.489 9.64324V16.0717C14.489 16.4268 14.1941 16.7146 13.8304 16.7146H1.97577C1.61203 16.7146 1.31717 16.4268 1.31717 16.0717V3.21469C1.31717 2.85964 1.61203 2.57183 1.97577 2.57183H9.87885C10.2426 2.57183 10.5375 2.28401 10.5375 1.92896C10.5375 1.57391 10.2426 1.28613 9.87885 1.28613H1.97577C0.884582 1.28613 0 2.14958 0 3.21469V16.0717C0 17.1369 0.884582 18.0003 1.97577 18.0003H13.8304C14.9216 18.0003 15.8062 17.1369 15.8062 16.0717V9.6432C15.8062 9.28819 15.5113 9.00037 15.1476 9.00037Z" fill="#858995"/>
<path d="M17.7028 0.720883C17.2299 0.259235 16.5885 -6.51637e-05 15.9197 1.01705e-05C15.2505 -0.00187318 14.6085 0.257879 14.1369 0.721298L5.46196 9.18826C5.38999 9.25904 5.3357 9.34507 5.30325 9.43961L3.98608 13.2967C3.87113 13.6336 4.0577 13.9976 4.40281 14.1098C4.46976 14.1315 4.53988 14.1427 4.61042 14.1427C4.68111 14.1426 4.75138 14.1315 4.81853 14.11L8.77006 12.8243C8.86711 12.7926 8.95529 12.7394 9.02756 12.6687L17.7025 4.20106C18.6871 3.2401 18.6872 1.68196 17.7028 0.720883ZM16.7712 3.29268L8.20959 11.6498L5.65163 12.4835L6.50318 9.98989L15.0681 1.63284C15.539 1.17413 16.3017 1.17488 16.7716 1.6345C16.9961 1.85406 17.1226 2.15129 17.1236 2.46148C17.1244 2.77333 16.9975 3.07255 16.7712 3.29268Z" fill="#858995"/>
</svg>
