<svg width="28" height="20" viewBox="0 0 28 20" fill="none" xmlns="http://www.w3.org/2000/svg">
<path d="M25 0H3C1.34315 0 0 1.34315 0 3V17C0 18.6569 1.34315 20 3 20H25C26.6569 20 28 18.6569 28 17V3C28 1.34315 26.6569 0 25 0ZM26 17C26 17.5523 25.5523 18 25 18H3C2.4477 18 1.99998 17.5523 1.99998 17V16.414L6.00001 12.414L9.29304 15.707C9.68351 16.0974 10.3166 16.0974 10.707 15.707L19 7.41399L26.0001 14.414V17H26ZM26 11.586L19.707 5.29301C19.3166 4.9026 18.6835 4.9026 18.293 5.29301L10 13.586L6.707 10.2929C6.31653 9.90253 5.68348 9.90253 5.29301 10.2929L1.99998 13.586V3C1.99998 2.4477 2.4477 1.99998 3 1.99998H25C25.5523 1.99998 26.0001 2.4477 26.0001 3V11.586H26Z" fill="#7D8E9E"/>
<path d="M9 4C7.34314 4 6 5.34315 6 7C6 8.65686 7.34314 10 9 10C10.6569 10 12 8.65686 12 7C12 5.34315 10.6569 4 9 4ZM9 8.00002C8.4477 8.00002 7.99998 7.55231 7.99998 7C7.99998 6.4477 8.4477 5.99998 9 5.99998C9.5523 5.99998 10 6.4477 10 7C10 7.55231 9.5523 8.00002 9 8.00002Z" fill="#7D8E9E"/>
</svg>
