<svg width="18" height="18" viewBox="0 0 18 18" fill="none" xmlns="http://www.w3.org/2000/svg">
<path d="M15.375 4.5H11.625C11.418 4.5 11.25 4.33125 11.25 4.12499V0.375012C11.25 0.168012 11.082 0 10.875 0H4C3 0 2.25 0.255307 2.25 1.5V16.3627C2.25 17.7192 3 18 3.75254 18H14C15.5 18 15.7734 17.5 15.7734 16.2812L15.75 4.87501C15.75 4.66801 15.582 4.5 15.375 4.5ZM14.625 16.2812C14.625 16.6483 14.4431 16.8477 14.0815 16.8477H3.75254C3.54554 16.8477 3.40234 16.5689 3.40234 16.3627V1.5C3.40234 1.29374 3.5 1.14603 4 1.14603H10.0977V4.12499C10.0977 5.33856 10.772 5.64782 11.625 5.64782H14.625V16.2812Z" fill="#858995"/>
<path d="M15.6397 4.61025L11.1397 0.110246C10.8014 0.110246 10.4934 0.110256 10.3222 0.110246C10.1511 0.110246 9.66051 0.110243 9.5 0.110246L14.611 5.25002C14.8061 5.25002 14.904 5.25002 15 5.25002C15.096 5.25002 15.3081 5.25002 15.5 5.25002C15.6463 5.10377 15.786 4.7565 15.6397 4.61025Z" fill="#858995"/>
</svg>
