<svg width="16" height="18" viewBox="0 0 16 18" fill="none" xmlns="http://www.w3.org/2000/svg">
<path d="M14.0469 2.24998H10.8774V1.68749C10.8774 0.757014 10.1019 0 9.14861 0H6.84355C5.8903 0 5.11476 0.757014 5.11476 1.68749V2.24998H1.9453C1.15092 2.24998 0.504639 2.88082 0.504639 3.65622V5.62496C0.504639 5.9356 0.762661 6.18746 1.0809 6.18746H1.39583L1.89369 16.3926C1.93767 17.2939 2.69617 17.9999 3.6205 17.9999H12.3717C13.296 17.9999 14.0545 17.2939 14.0985 16.3926L14.5963 6.18746H14.9113C15.2295 6.18746 15.4875 5.9356 15.4875 5.62496V3.65622C15.4875 2.88082 14.8412 2.24998 14.0469 2.24998ZM6.26729 1.68749C6.26729 1.37734 6.52581 1.12499 6.84355 1.12499H9.14861C9.46635 1.12499 9.72488 1.37734 9.72488 1.68749V2.24998H6.26729V1.68749ZM1.65717 3.65622C1.65717 3.50115 1.78643 3.37498 1.9453 3.37498H14.0469C14.2057 3.37498 14.335 3.50115 14.335 3.65622V5.06247C14.1574 5.06247 2.39309 5.06247 1.65717 5.06247V3.65622ZM12.9472 16.3391C12.9326 16.6395 12.6797 16.8749 12.3717 16.8749H3.6205C3.31238 16.8749 3.05955 16.6395 3.04492 16.3391L2.54966 6.18746H13.4425L12.9472 16.3391Z" fill="#858995"/>
<path d="M7.99619 15.7499C8.31443 15.7499 8.57245 15.4981 8.57245 15.1874V7.87499C8.57245 7.56436 8.31443 7.3125 7.99619 7.3125C7.67794 7.3125 7.41992 7.56436 7.41992 7.87499V15.1874C7.41992 15.4981 7.67791 15.7499 7.99619 15.7499Z" fill="#858995"/>
<path d="M10.8778 15.7499C11.196 15.7499 11.454 15.4981 11.454 15.1874V7.87499C11.454 7.56436 11.196 7.3125 10.8778 7.3125C10.5595 7.3125 10.3015 7.56436 10.3015 7.87499V15.1874C10.3015 15.4981 10.5595 15.7499 10.8778 15.7499Z" fill="#858995"/>
<path d="M5.11484 15.7499C5.43308 15.7499 5.6911 15.4981 5.6911 15.1874V7.87499C5.6911 7.56436 5.43308 7.3125 5.11484 7.3125C4.7966 7.3125 4.53857 7.56436 4.53857 7.87499V15.1874C4.53857 15.4981 4.79656 15.7499 5.11484 15.7499Z" fill="#858995"/>
</svg>
